<svg width="128" height="128" xmlns="http://www.w3.org/2000/svg">

 <g>
  <title>background</title>
  <rect fill="none" id="canvas_background" height="402" width="582" y="-1" x="-1"/>
 </g>
 <g>
  <title>Layer 1</title>
  <path id="svg_3" fill-rule="evenodd" fill="#000000" d="m116,16c-2.210999,0 -4,-1.789 -4,-4s1.789001,-4 4,-4s4,-1.789 4,-4s-1.789001,-4 -4,-4l-96,0c-6.625,0 -12,5.371 -12,12l0,108c0,4.417999 3.578,8 8,8l96,0c4.421997,0 8,-3.582001 8,-8l0,-100c0,-2.211 -1.789001,-4 -4,-4zm-4,104l-96,0l0,-96.733999c1.257999,0.445 2.594,0.733999 4,0.733999l20,0l0,-8l-20,0c-2.202999,0 -4,-1.793 -4,-4s1.797001,-4 4,-4l84.734001,0c-0.445,1.258 -0.734001,2.59 -0.734001,4s0.289001,2.742 0.734001,4l-48.734001,0l0,8l56,0l0,96z" clip-rule="evenodd"/>
  <path id="svg_4" fill="#00ff00" d="m56,8l0,36.688l-8,-8.001999l-8,8.001999l0,-36.688l16,0m8,-8l-32,0l0,64l16,-16l16,16l0,-64l0,0z"/>
 </g>
</svg>