<svg width="48" height="48" xmlns="http://www.w3.org/2000/svg">

 <g>
  <title>background</title>
  <rect fill="none" id="canvas_background" height="402" width="582" y="-1" x="-1"/>
 </g>
 <g>
  <title>Layer 1</title>
  <path id="svg_3" d="m5,44c-0.256,0 -0.512,-0.098 -0.707,-0.292999c-0.391,-0.390999 -0.391,-1.023003 0,-1.414001l26.870999,-26.869999c0.391001,-0.391001 1.023001,-0.391001 1.414,0s0.391003,1.022999 0,1.414l-26.870999,26.870001c-0.195,0.195 -0.451,0.292999 -0.707,0.292999z"/>
  <path id="svg_5" d="m31.613001,3.658l4.852999,4.853l6.789001,-3.588l-3.59,6.789l4.674,4.674l-6.18,-1.45l-3.393002,7.275001l-0.976997,-7.821l-7.822002,-0.978001l7.273003,-3.396l-1.627001,-6.358m0,-1.7c-0.288,0 -0.578001,0.073 -0.841002,0.223c-0.664999,0.379 -0.994999,1.157 -0.805,1.899l1.279001,4.991l-5.996,2.799c-0.686001,0.32 -1.077999,1.057 -0.959999,1.805c0.118,0.748 0.716999,1.328 1.467999,1.422l6.510002,0.814l0.813,6.509c0.093998,0.752001 0.674,1.351 1.423,1.469c0.088997,0.014 0.176998,0.021 0.264999,0.021c0.652,0 1.257999,-0.375999 1.539997,-0.982l2.809002,-6.021999l4.834999,1.135c0.130001,0.029999 0.260002,0.045 0.389,0.045c0.607002,0 1.18,-0.326 1.485001,-0.873001c0.368999,-0.664 0.254002,-1.492 -0.283001,-2.028999l-3.785999,-3.786l3.003002,-5.68c0.348999,-0.659 0.226997,-1.469 -0.301003,-1.997c-0.327,-0.327 -0.761997,-0.498 -1.202999,-0.498c-0.27,0 -0.542999,0.064 -0.793999,0.197l-5.68,3.002l-3.966,-3.966c-0.329002,-0.327 -0.764,-0.498 -1.204,-0.498l0,0z"/>
 </g>
</svg>